<svg width="21" height="21" viewBox="0 0 21 21" fill="none" xmlns="http://www.w3.org/2000/svg">
<path fill-rule="evenodd" clip-rule="evenodd" d="M15.047 20.9899C16.6232 20.9899 18.1348 20.4071 19.2493 19.3697C20.3638 18.3323 20.99 16.9252 20.99 15.4581C20.99 13.991 20.3638 12.5839 19.2493 11.5465C18.1348 10.5091 16.6232 9.92627 15.047 9.92627C13.4708 9.92627 11.9592 10.5091 10.8447 11.5465C9.73014 12.5839 9.104 13.991 9.104 15.4581C9.104 16.9252 9.73014 18.3323 10.8447 19.3697C11.9592 20.4071 13.4708 20.9899 15.047 20.9899ZM15.047 11.9449C15.1903 11.9449 15.3277 11.9979 15.429 12.0922C15.5303 12.1865 15.5872 12.3144 15.5872 12.4478V14.9552H18.281C18.4243 14.9552 18.5617 15.0082 18.6631 15.1025C18.7644 15.1968 18.8213 15.3247 18.8213 15.4581C18.8213 15.5915 18.7644 15.7194 18.6631 15.8137C18.5617 15.908 18.4243 15.961 18.281 15.961H15.5872V18.4684C15.5872 18.6018 15.5303 18.7297 15.429 18.824C15.3277 18.9183 15.1903 18.9713 15.047 18.9713C14.9037 18.9713 14.7663 18.9183 14.6649 18.824C14.5636 18.7297 14.5067 18.6018 14.5067 18.4684V15.961H11.8129C11.6696 15.961 11.5322 15.908 11.4309 15.8137C11.3296 15.7194 11.2726 15.5915 11.2726 15.4581C11.2726 15.3247 11.3296 15.1968 11.4309 15.1025C11.5322 15.0082 11.6696 14.9552 11.8129 14.9552H14.5067V12.4478C14.5067 12.3144 14.5636 12.1865 14.6649 12.0922C14.7663 11.9979 14.9037 11.9449 15.047 11.9449Z" fill="white"/>
<path d="M1 17.0926C1 17.7595 1.28461 18.399 1.79121 18.8706C2.29781 19.3421 2.98491 19.607 3.70135 19.607H8.68264M1 17.0926C1 16.4257 1.28461 15.7861 1.79121 15.3146C2.29781 14.843 2.98491 14.5781 3.70135 14.5781H7.28874M1 17.0926V4.01736C1 3.21711 1.34153 2.44963 1.94945 1.88376C2.55737 1.3179 3.38189 1 4.24162 1H16.1276C16.4141 1 16.689 1.10597 16.8916 1.29459C17.0943 1.48321 17.2081 1.73904 17.2081 2.00579V8.53837" stroke="white" stroke-width="1.5" stroke-linecap="round" stroke-linejoin="round"/>
</svg>
