<svg width="24" height="23" viewBox="0 0 24 23" fill="none" xmlns="http://www.w3.org/2000/svg">
<path d="M2.81763 11.0927C2.81763 6.7643 2.81763 4.60008 4.16189 3.2549C5.50798 1.91064 7.67128 1.91064 11.9997 1.91064C16.3282 1.91064 18.4924 1.91064 19.8366 3.2549C21.1818 4.601 21.1818 6.7643 21.1818 11.0927C21.1818 15.4212 21.1818 17.5854 19.8366 18.9297C18.4933 20.2748 16.3282 20.2748 11.9997 20.2748C7.67128 20.2748 5.50706 20.2748 4.16189 18.9297C2.81763 17.5863 2.81763 15.4212 2.81763 11.0927Z" stroke="#FF6500" stroke-width="1.5"/>
<path d="M14.7544 11.0925H11.9997M11.9997 11.0925H9.24512M11.9997 11.0925V8.33789M11.9997 11.0925V13.8471" stroke="#FF6500" stroke-width="1.5" stroke-linecap="round"/>
</svg>
