<svg width="24" height="24" viewBox="0 0 24 24" fill="none" xmlns="http://www.w3.org/2000/svg">
<path d="M6.33167 16.3267H3M3 22.99H16.3267C17.3617 22.99 17.8792 22.99 18.2868 22.8212C18.5565 22.7096 18.8015 22.5459 19.0079 22.3395C19.2142 22.1331 19.3779 21.8881 19.4895 21.6185C19.6583 21.2109 19.6583 20.6934 19.6583 19.6583C19.6583 18.6233 19.6583 18.1058 19.4895 17.6982C19.3779 17.4285 19.2142 17.1835 19.0079 16.9771C18.8015 16.7708 18.5565 16.6071 18.2868 16.4955C17.8792 16.3267 17.3617 16.3267 16.3267 16.3267H14.1056H19.6583C20.6934 16.3267 21.2109 16.3267 21.6185 16.1579C21.8881 16.0462 22.1331 15.8826 22.3395 15.6762C22.5459 15.4698 22.7096 15.2248 22.8212 14.9551C22.99 14.5476 22.99 14.03 22.99 12.995C22.99 11.96 22.99 11.4424 22.8212 11.0349C22.7096 10.7652 22.5459 10.5202 22.3395 10.3138C22.1331 10.1074 21.8881 9.94376 21.6185 9.83214C21.2109 9.66333 20.6934 9.66333 19.6583 9.66333H3H15.2161C16.2511 9.66333 16.7687 9.66333 17.1762 9.49453C17.4459 9.3829 17.6909 9.21923 17.8973 9.01285C18.1037 8.80648 18.2673 8.56146 18.379 8.2918C18.5478 7.88422 18.5478 7.3667 18.5478 6.33167C18.5478 5.29663 18.5478 4.77911 18.379 4.37154C18.2673 4.10187 18.1037 3.85685 17.8973 3.65048C17.6909 3.44411 17.4459 3.28043 17.1762 3.1688C16.7687 3 16.2511 3 15.2161 3H3" stroke="white" stroke-width="1.5" stroke-linecap="round" stroke-linejoin="round"/>
<path d="M14.1055 9.66333V16.5377C14.1055 17.7759 14.1055 18.3945 13.7434 18.5256C13.3803 18.6588 12.9705 18.188 12.152 17.2484L11.6167 16.6354C11.2247 16.1856 11.0292 15.9613 10.7738 15.9613C10.5184 15.9613 10.3229 16.1856 9.92978 16.6354L9.39672 17.2484C8.57713 18.188 8.16733 18.6588 7.80529 18.5256C7.44214 18.3945 7.44214 17.7759 7.44214 16.5377V9.66333" stroke="white" stroke-width="1.5" stroke-linecap="round" stroke-linejoin="round"/>
</svg>
