<svg width="60" height="60" viewBox="0 0 60 60" fill="none" xmlns="http://www.w3.org/2000/svg">
<rect width="60" height="60" rx="27" fill="url(#paint0_linear_320_826)"/>
<path d="M38.5556 37.3334H26.3333C25.685 37.3334 25.0633 37.0758 24.6048 36.6174C24.1464 36.159 23.8889 35.5373 23.8889 34.8889V20.2223C23.8889 19.574 24.1464 18.9522 24.6048 18.4938C25.0633 18.0354 25.685 17.7778 26.3333 17.7778H27.5556V23.8889L30 22.0556L32.4444 23.8889V17.7778H38.5556C39.2039 17.7778 39.8256 18.0354 40.284 18.4938C40.7425 18.9522 41 19.574 41 20.2223V34.8889C41 35.5373 40.7425 36.159 40.284 36.6174C39.8256 37.0758 39.2039 37.3334 38.5556 37.3334ZM36.1111 39.7778V42.2223H21.4444C20.7961 42.2223 20.1744 41.9647 19.716 41.5063C19.2575 41.0479 19 40.4261 19 39.7778V22.6667H21.4444V39.7778H36.1111Z" fill="#F2727B"/>
<defs>
<linearGradient id="paint0_linear_320_826" x1="30" y1="0" x2="30" y2="60" gradientUnits="userSpaceOnUse">
<stop stop-color="#8F1C24"/>
<stop offset="1" stop-color="#8F1C24" stop-opacity="0"/>
</linearGradient>
</defs>
</svg>
