<svg width="24" height="24" viewBox="0 0 24 24" fill="none" xmlns="http://www.w3.org/2000/svg">
<g id="basil:arrow-up-solid">
<path id="Vector" d="M13.4699 8.52991C13.3962 8.46125 13.3371 8.37845 13.2961 8.28645C13.2552 8.19445 13.2331 8.09513 13.2313 7.99443C13.2296 7.89373 13.2481 7.7937 13.2858 7.70031C13.3235 7.60692 13.3797 7.52209 13.4509 7.45087C13.5221 7.37965 13.6069 7.32351 13.7003 7.28579C13.7937 7.24807 13.8937 7.22954 13.9944 7.23132C14.0952 7.23309 14.1945 7.25514 14.2865 7.29613C14.3785 7.33712 14.4613 7.39622 14.5299 7.46991L18.5299 11.4699C18.6704 11.6105 18.7493 11.8012 18.7493 11.9999C18.7493 12.1987 18.6704 12.3893 18.5299 12.5299L14.5299 16.5299C14.4613 16.6036 14.3785 16.6627 14.2865 16.7037C14.1945 16.7447 14.0952 16.7667 13.9944 16.7685C13.8937 16.7703 13.7937 16.7518 13.7003 16.714C13.6069 16.6763 13.5221 16.6202 13.4509 16.5489C13.3797 16.4777 13.3235 16.3929 13.2858 16.2995C13.2481 16.2061 13.2296 16.1061 13.2313 16.0054C13.2331 15.9047 13.2552 15.8054 13.2961 15.7134C13.3371 15.6214 13.3962 15.5386 13.4699 15.4699L16.1899 12.7499L6.49993 12.7499C6.30101 12.7499 6.11025 12.6709 5.9696 12.5302C5.82894 12.3896 5.74993 12.1988 5.74993 11.9999C5.74993 11.801 5.82894 11.6102 5.9696 11.4696C6.11025 11.3289 6.30101 11.2499 6.49993 11.2499L16.1899 11.2499L13.4699 8.52991Z" fill="white"/>
</g>
</svg>
