<svg width="24" height="23" viewBox="0 0 24 23" fill="none" xmlns="http://www.w3.org/2000/svg">
<path d="M4.65405 7.38279C4.65405 4.7861 4.65405 3.48683 5.46116 2.68064C6.26735 1.87354 7.56661 1.87354 10.1633 1.87354H13.8362C16.4328 1.87354 17.7321 1.87354 18.5383 2.68064C19.3454 3.48683 19.3454 4.7861 19.3454 7.38279V14.7285C19.3454 17.3252 19.3454 18.6244 18.5383 19.4306C17.7321 20.2377 16.4328 20.2377 13.8362 20.2377H10.1633C7.56661 20.2377 6.26735 20.2377 5.46116 19.4306C4.65405 18.6244 4.65405 17.3252 4.65405 14.7285V7.38279Z" stroke="#FF6500" stroke-width="1.5"/>
<path d="M19.2518 14.7285H8.23323C7.3793 14.7285 6.95233 14.7285 6.60158 14.8222C6.13449 14.9474 5.70861 15.1934 5.36675 15.5355C5.02488 15.8775 4.77908 16.3035 4.65405 16.7706" stroke="#FF6500" stroke-width="1.5"/>
<path d="M7.40869 14.7284V2.33252" stroke="#FF6500" stroke-width="1.5" stroke-linecap="round"/>
</svg>
