<svg width="24" height="23" viewBox="0 0 24 23" fill="none" xmlns="http://www.w3.org/2000/svg">
<path d="M11.311 16.5278C11.311 16.7104 11.3836 16.8856 11.5127 17.0147C11.6419 17.1439 11.817 17.2164 11.9997 17.2164C12.1823 17.2164 12.3575 17.1439 12.4866 17.0147C12.6158 16.8856 12.6883 16.7104 12.6883 16.5278V13.7731C12.6883 13.5905 12.6158 13.4153 12.4866 13.2862C12.3575 13.157 12.1823 13.0845 11.9997 13.0845C11.817 13.0845 11.6419 13.157 11.5127 13.2862C11.3836 13.4153 11.311 13.5905 11.311 13.7731V16.5278Z" fill="#FF6500"/>
<path fill-rule="evenodd" clip-rule="evenodd" d="M11.9997 1.14795C11.3496 1.14795 10.7592 1.33435 10.1173 1.64562C9.49846 1.94679 8.78225 2.39121 7.88884 2.9458L5.9909 4.12387C5.14614 4.64908 4.46759 5.06962 3.94604 5.46904C3.40522 5.88224 2.99019 6.30462 2.68993 6.85279C2.3906 7.39912 2.25654 7.98127 2.19134 8.66901C2.12891 9.33471 2.12891 10.1501 2.12891 11.172V12.6531C2.12891 14.4014 2.12891 15.7815 2.26939 16.8604C2.41263 17.9668 2.71564 18.8602 3.39879 19.5663C4.08469 20.2761 4.95699 20.5938 6.03864 20.7435C7.0854 20.8895 8.42415 20.8895 10.11 20.8895H13.8893C15.5752 20.8895 16.9139 20.8895 17.9607 20.7435C19.0414 20.5938 19.9146 20.2761 20.6015 19.5663C21.2837 18.8602 21.5867 17.9668 21.7309 16.8604C21.8704 15.7815 21.8704 14.4014 21.8704 12.6531V11.172C21.8704 10.1501 21.8704 9.33563 21.808 8.66901C21.7437 7.98035 21.6087 7.39912 21.3094 6.85279C21.0091 6.30462 20.5932 5.88316 20.0533 5.46904C19.5317 5.06871 18.8541 4.64908 18.0084 4.12387L16.1105 2.9458C15.2171 2.39121 14.5009 1.94679 13.8811 1.64562C13.2411 1.33343 12.6507 1.14795 11.9997 1.14795ZM8.58392 4.1358C9.5159 3.55733 10.1724 3.15148 10.7206 2.88428C11.2541 2.62443 11.6324 2.52526 11.9997 2.52526C12.3669 2.52526 12.7452 2.62443 13.2787 2.88428C13.8278 3.15056 14.4834 3.55733 15.4154 4.1358L17.2518 5.2753C18.1342 5.82347 18.754 6.2082 19.2168 6.56263C19.6658 6.90696 19.9238 7.19069 20.101 7.5139C20.2782 7.83803 20.382 8.21725 20.4362 8.79756C20.4922 9.39256 20.4931 10.1427 20.4931 11.206V12.6026C20.4931 14.4115 20.4913 15.7025 20.3646 16.6822C20.2397 17.6445 20.0037 18.2028 19.6116 18.6095C19.2214 19.0126 18.6907 19.2523 17.7715 19.3799C16.8294 19.5103 15.5871 19.5121 13.8361 19.5121H10.1632C8.4113 19.5121 7.16988 19.5103 6.2278 19.3799C5.30867 19.2514 4.77794 19.0126 4.38862 18.6086C3.99563 18.2028 3.75965 17.6445 3.63569 16.6822C3.50714 15.7025 3.50622 14.4124 3.50622 12.6026V11.206C3.50622 10.1427 3.50622 9.39256 3.56315 8.79756C3.61732 8.21725 3.72108 7.83803 3.8983 7.5139C4.07551 7.19069 4.33353 6.90696 4.78345 6.56263C5.24531 6.2082 5.8651 5.82347 6.7475 5.2753L8.58392 4.1358Z" fill="#FF6500"/>
</svg>
