<svg width="18" height="18" viewBox="0 0 18 18" fill="none" xmlns="http://www.w3.org/2000/svg">
<path d="M0.75 13.8123V17.2498H4.1875L14.3258 7.11146L10.8883 3.67397L0.75 13.8123ZM16.9842 4.45313C17.0691 4.36833 17.1366 4.2676 17.1826 4.1567C17.2286 4.04581 17.2522 3.92694 17.2522 3.80688C17.2522 3.68683 17.2286 3.56795 17.1826 3.45706C17.1366 3.34617 17.0691 3.24544 16.9842 3.16063L14.8392 1.01563C14.7544 0.930654 14.6536 0.863235 14.5427 0.817236C14.4318 0.771236 14.313 0.747559 14.1929 0.747559C14.0729 0.747559 13.954 0.771236 13.8431 0.817236C13.7322 0.863235 13.6315 0.930654 13.5467 1.01563L11.8692 2.69313L15.3067 6.13063L16.9842 4.45313Z" fill="white"/>
</svg>
