<svg width="41" height="41" viewBox="0 0 41 41" fill="none" xmlns="http://www.w3.org/2000/svg">
<g id="eos-icons:admin-outlined">
<path id="Vector" d="M20.5001 39.2916C11.0069 37.1818 3.41675 28.225 3.41675 18.7916V8.54159L20.5001 1.70825L37.5834 8.54159V18.7916C37.5834 28.2284 29.9933 37.1818 20.5001 39.2916ZM6.83341 10.2499V18.7916C6.93104 22.7415 8.32028 26.5506 10.7885 29.6358C13.2567 32.7211 16.668 34.9126 20.5001 35.8749C24.3322 34.9126 27.7434 32.7211 30.2117 29.6358C32.6799 26.5506 34.0691 22.7415 34.1667 18.7916V10.2499L20.5001 5.12492L6.83341 10.2499Z" fill="#FF6500"/>
<path id="Vector_2" d="M20.5001 18.7917C22.8588 18.7917 24.7709 16.8795 24.7709 14.5208C24.7709 12.1621 22.8588 10.25 20.5001 10.25C18.1414 10.25 16.2292 12.1621 16.2292 14.5208C16.2292 16.8795 18.1414 18.7917 20.5001 18.7917Z" fill="#FF6500"/>
<path id="Vector_3" d="M11.9583 25.625C12.8 27.1597 14.0345 28.443 15.5355 29.3435C17.0364 30.2441 18.7497 30.7295 20.4999 30.75C22.2501 30.7295 23.9635 30.2441 25.4644 29.3435C26.9653 28.443 28.1998 27.1597 29.0416 25.625C28.9989 22.386 23.3323 20.5 20.4999 20.5C17.6521 20.5 12.001 22.386 11.9583 25.625Z" fill="#FF6500"/>
</g>
</svg>
