<svg width="14" height="14" viewBox="0 0 14 14" fill="none" xmlns="http://www.w3.org/2000/svg">
<path d="M9.12014 9.82699L13.1461 13.854C13.1926 13.9005 13.2478 13.9374 13.3086 13.9625C13.3693 13.9877 13.4344 14.0006 13.5001 14.0006C13.5659 14.0006 13.631 13.9877 13.6917 13.9625C13.7525 13.9374 13.8077 13.9005 13.8541 13.854C13.9006 13.8075 13.9375 13.7523 13.9627 13.6916C13.9878 13.6308 14.0008 13.5657 14.0008 13.5C14.0008 13.4342 13.9878 13.3691 13.9627 13.3084C13.9375 13.2477 13.9006 13.1925 13.8541 13.146L0.854143 0.145991C0.807655 0.0995028 0.752466 0.0626265 0.691727 0.0374674C0.630987 0.0123083 0.565887 -0.000640869 0.500143 -0.000640869C0.434399 -0.00064087 0.369299 0.0123083 0.30856 0.0374674C0.247821 0.0626265 0.192631 0.0995028 0.146143 0.145991C0.0996554 0.192479 0.0627791 0.247668 0.03762 0.308407C0.0124609 0.369147 -0.000488282 0.434247 -0.000488281 0.499991C-0.000488281 0.565735 0.0124609 0.630835 0.03762 0.691574C0.0627791 0.752314 0.0996554 0.807503 0.146143 0.853991L3.37614 4.08399C2.93663 4.39554 2.54107 4.76485 2.20014 5.18199C1.71754 5.77415 1.33976 6.44448 1.08314 7.16399C1.06214 7.22499 1.03614 7.30899 1.03614 7.30899L1.01814 7.37099C1.01814 7.37099 0.942143 7.86799 1.37314 7.98199C1.50124 8.01585 1.63754 7.99748 1.7521 7.93092C1.86666 7.86435 1.95012 7.75504 1.98414 7.62699L1.98514 7.62399L1.99314 7.59899L2.02814 7.48999C2.2461 6.88252 2.56564 6.31647 2.97314 5.81599C3.29418 5.4229 3.67319 5.08099 4.09714 4.80199L5.67514 6.37999C5.35671 6.57958 5.08736 6.84839 4.88715 7.16643C4.68693 7.48447 4.561 7.84356 4.51871 8.21699C4.47642 8.59042 4.51887 8.96857 4.64289 9.32333C4.76691 9.67809 4.96932 10.0003 5.23507 10.2661C5.50081 10.5318 5.82304 10.7342 6.1778 10.8582C6.53256 10.9823 6.91072 11.0247 7.28415 10.9824C7.65757 10.9401 8.01666 10.8142 8.3347 10.614C8.65275 10.4138 8.92156 10.1444 9.12114 9.82599M5.32114 3.19799L6.17514 4.05199C6.43448 4.01732 6.70948 3.99999 7.00014 3.99999C9.04414 3.99999 10.2861 4.91199 11.0281 5.81699C11.4356 6.31747 11.7552 6.88352 11.9731 7.49099C11.9898 7.53966 12.0015 7.57599 12.0081 7.59999L12.0161 7.62499V7.62799L12.0171 7.62899C12.0541 7.75379 12.1384 7.85924 12.2519 7.92293C12.3654 7.98662 12.4993 8.00353 12.6251 7.97006C12.7509 7.93659 12.8586 7.85539 12.9255 7.74371C12.9924 7.63203 13.013 7.49868 12.9831 7.37199V7.36899L12.9821 7.36499L12.9781 7.35199C12.9612 7.28871 12.9412 7.2263 12.9181 7.16499C12.6615 6.44548 12.2837 5.77515 11.8011 5.18299C10.9051 4.08899 9.39614 2.99999 7.00214 2.99999C6.38414 2.99999 5.82514 3.07099 5.32114 3.19799Z" fill="#999999"/>
</svg>
