<svg width="40" height="40" viewBox="0 0 40 40" fill="none" xmlns="http://www.w3.org/2000/svg">
<path d="M31.4287 34.7178C31.4287 36.0493 29.3879 36.1621 28.5715 37.8678C26.9389 38.2943 26.3538 39.1471 25.3062 39.1471L19.1838 40L11.4287 37.8678C11.2986 37.0149 11.4287 38.2943 10.6123 37.4414C11.5371 36.312 8.57153 36.0493 8.57153 34.7178C8.57153 33.6795 8.62213 32.6992 8.72332 31.7769C8.82451 30.8546 9.01201 29.9262 9.28582 28.9917C9.55963 28.0572 9.90784 27.2571 10.3305 26.5913C10.7531 25.9256 11.3126 25.382 12.009 24.9605C12.7055 24.5391 13.5061 24.3284 14.4108 24.3284C15.9703 25.892 17.8334 26.6738 20.0001 26.6738C22.1668 26.6738 24.0299 25.892 25.5894 24.3284C26.4942 24.3284 27.2947 24.5391 27.9912 24.9605C28.6876 25.382 29.2471 25.9256 29.6697 26.5913C30.0924 27.2571 30.4406 28.0572 30.7144 28.9917C30.9882 29.9262 31.1757 30.8546 31.2769 31.7769C31.3781 32.6992 31.4287 33.6795 31.4287 34.7178ZM26.8572 18.4648C26.8572 20.4071 26.1876 22.0654 24.8483 23.4397C23.509 24.8139 21.893 25.5011 20.0001 25.5011C18.1072 25.5011 16.4912 24.8139 15.1519 23.4397C13.8126 22.0654 13.143 20.4071 13.143 18.4648C13.143 16.5225 13.8126 14.8643 15.1519 13.49C16.4912 12.1157 18.1072 11.4286 20.0001 11.4286C21.893 11.4286 23.509 12.1157 24.8483 13.49C26.1876 14.8643 26.8572 16.5225 26.8572 18.4648Z" fill="white"/>
<path d="M39.5 20C39.5 30.7696 30.7696 39.5 20 39.5C9.23045 39.5 0.5 30.7696 0.5 20C0.5 9.23045 9.23045 0.5 20 0.5C30.7696 0.5 39.5 9.23045 39.5 20Z" stroke="#FF6500"/>
</svg>
