<svg width="20" height="20" viewBox="0 0 20 20" fill="none" xmlns="http://www.w3.org/2000/svg">
<path id="Vector" d="M2.69096 19.99H1.15327C0.847403 19.99 0.554065 19.8847 0.337785 19.6973C0.121505 19.5098 0 19.2556 0 18.9905V12.9935C0 12.7284 0.121505 12.4742 0.337785 12.2867C0.554065 12.0993 0.847403 11.994 1.15327 11.994H2.69096C2.99683 11.994 3.29017 12.0993 3.50645 12.2867C3.72273 12.4742 3.84423 12.7284 3.84423 12.9935V18.9905C3.84423 19.2556 3.72273 19.5098 3.50645 19.6973C3.29017 19.8847 2.99683 19.99 2.69096 19.99ZM13.4548 19.99H11.9171C11.6112 19.99 11.3179 19.8847 11.1016 19.6973C10.8854 19.5098 10.7638 19.2556 10.7638 18.9905V8.9955C10.7638 8.73042 10.8854 8.47619 11.1016 8.28875C11.3179 8.1013 11.6112 7.996 11.9171 7.996H13.4548C13.7607 7.996 14.054 8.1013 14.2703 8.28875C14.4866 8.47619 14.6081 8.73042 14.6081 8.9955V18.9905C14.6081 19.2556 14.4866 19.5098 14.2703 19.6973C14.054 19.8847 13.7607 19.99 13.4548 19.99ZM18.8367 19.99H17.299C16.9932 19.99 16.6998 19.8847 16.4836 19.6973C16.2673 19.5098 16.1458 19.2556 16.1458 18.9905V4.33117C16.1458 4.06608 16.2673 3.81186 16.4836 3.62441C16.6998 3.43697 16.9932 3.33167 17.299 3.33167H18.8367C19.1426 3.33167 19.4359 3.43697 19.6522 3.62441C19.8685 3.81186 19.99 4.06608 19.99 4.33117V18.9905C19.99 19.2556 19.8685 19.5098 19.6522 19.6973C19.4359 19.8847 19.1426 19.99 18.8367 19.99ZM8.07288 19.99H6.53519C6.22933 19.99 5.93599 19.8847 5.71971 19.6973C5.50343 19.5098 5.38192 19.2556 5.38192 18.9905V0.9995C5.38192 0.734416 5.50343 0.480189 5.71971 0.292747C5.93599 0.105304 6.22933 0 6.53519 0H8.07288C8.37875 0 8.67209 0.105304 8.88837 0.292747C9.10465 0.480189 9.22615 0.734416 9.22615 0.9995V18.9905C9.22615 19.2556 9.10465 19.5098 8.88837 19.6973C8.67209 19.8847 8.37875 19.99 8.07288 19.99Z" fill="white"/>
</svg>
