<svg width="60" height="60" viewBox="0 0 60 60" fill="none" xmlns="http://www.w3.org/2000/svg">
<rect width="60" height="60" rx="30" fill="url(#paint0_linear_320_813)"/>
<path d="M31.1889 28.2331C31.8638 27.2901 32.2268 26.1595 32.2268 24.9998C32.2268 23.8401 31.8638 22.7095 31.1889 21.7664C31.8209 21.3359 32.5687 21.1073 33.3334 21.1109C34.3648 21.1109 35.3539 21.5206 36.0832 22.2499C36.8125 22.9792 37.2222 23.9684 37.2222 24.9998C37.2222 26.0312 36.8125 27.0203 36.0832 27.7496C35.3539 28.4789 34.3648 28.8887 33.3334 28.8887C32.5687 28.8922 31.8209 28.6636 31.1889 28.2331ZM22.7778 24.9998C22.7778 24.2306 23.0059 23.4787 23.4332 22.8392C23.8605 22.1997 24.4679 21.7012 25.1785 21.4069C25.8891 21.1126 26.671 21.0356 27.4254 21.1856C28.1797 21.3357 28.8727 21.706 29.4166 22.2499C29.9604 22.7938 30.3308 23.4867 30.4809 24.2411C30.6309 24.9955 30.5539 25.7774 30.2596 26.488C29.9652 27.1986 29.4668 27.8059 28.8272 28.2333C28.1877 28.6606 27.4358 28.8887 26.6667 28.8887C25.6353 28.8887 24.6461 28.4789 23.9168 27.7496C23.1875 27.0203 22.7778 26.0312 22.7778 24.9998ZM25 24.9998C25 25.3294 25.0978 25.6516 25.2809 25.9257C25.464 26.1998 25.7243 26.4134 26.0289 26.5396C26.3334 26.6657 26.6685 26.6987 26.9918 26.6344C27.3151 26.5701 27.6121 26.4114 27.8452 26.1783C28.0783 25.9452 28.237 25.6482 28.3013 25.3249C28.3656 25.0016 28.3326 24.6665 28.2065 24.362C28.0803 24.0574 27.8667 23.7971 27.5926 23.614C27.3186 23.4309 26.9963 23.3331 26.6667 23.3331C26.2247 23.3331 25.8007 23.5087 25.4882 23.8213C25.1756 24.1338 25 24.5577 25 24.9998ZM34.4445 35.5553V37.7775H18.8889V35.5553C18.8889 35.5553 18.8889 31.1109 26.6667 31.1109C34.4445 31.1109 34.4445 35.5553 34.4445 35.5553ZM32.2222 35.5553C32.0667 34.6887 30.7445 33.3331 26.6667 33.3331C22.5889 33.3331 21.1889 34.7887 21.1111 35.5553M34.3889 31.1109C35.0699 31.6406 35.6267 32.3129 36.0202 33.0807C36.4137 33.8485 36.6344 34.6932 36.6667 35.5553V37.7775H41.1111V35.5553C41.1111 35.5553 41.1111 31.522 34.3778 31.1109H34.3889Z" fill="#F272C8"/>
<defs>
<linearGradient id="paint0_linear_320_813" x1="30" y1="0" x2="30" y2="60" gradientUnits="userSpaceOnUse">
<stop stop-color="#8F1C69"/>
<stop offset="1" stop-color="#621E4C" stop-opacity="0"/>
</linearGradient>
</defs>
</svg>
