<svg width="20" height="20" viewBox="0 0 20 20" fill="none" xmlns="http://www.w3.org/2000/svg">
<g id="uil:book-open">
<path id="Vector" d="M17.6328 1.71587C17.0359 1.61265 16.4313 1.55971 15.8254 1.55762C13.7584 1.55593 11.7345 2.14864 9.995 3.2651C8.251 2.1633 6.22743 1.58513 4.16459 1.59927C3.55874 1.60136 2.95415 1.6543 2.35716 1.75752C2.16159 1.79124 1.98449 1.89367 1.85775 2.04637C1.73101 2.19907 1.66295 2.39201 1.66584 2.59044V12.5854C1.66405 12.7078 1.68926 12.8291 1.73967 12.9406C1.79009 13.0522 1.86446 13.1512 1.9575 13.2307C2.05054 13.3103 2.15997 13.3683 2.27799 13.4007C2.39602 13.4332 2.51974 13.4392 2.64035 13.4184C3.83393 13.2117 5.05681 13.246 6.23694 13.5192C7.41707 13.7924 8.53059 14.299 9.51191 15.0092L9.61186 15.0675H9.70348C9.79574 15.1065 9.89486 15.1265 9.995 15.1265C10.0951 15.1265 10.1943 15.1065 10.2865 15.0675H10.3781L10.4781 15.0092C11.4526 14.2832 12.5629 13.7601 13.7433 13.4711C14.9236 13.1821 16.15 13.133 17.3497 13.3267C17.4703 13.3476 17.594 13.3415 17.712 13.3091C17.83 13.2767 17.9395 13.2186 18.0325 13.1391C18.1255 13.0596 18.1999 12.9605 18.2503 12.849C18.3007 12.7375 18.326 12.6162 18.3242 12.4938V2.49882C18.3155 2.30904 18.2422 2.12793 18.1165 1.98552C17.9907 1.84312 17.8201 1.74797 17.6328 1.71587ZM9.16209 12.7853C7.62074 11.9756 5.90569 11.5525 4.16459 11.5526H3.33167V3.22345C3.60909 3.20802 3.88716 3.20802 4.16459 3.22345C5.94152 3.22149 7.67967 3.74294 9.16209 4.7227V12.7853ZM16.6583 11.5859H15.8254C14.0843 11.5859 12.3693 12.0089 10.8279 12.8187V4.7227C12.3103 3.74294 14.0485 3.22149 15.8254 3.22345C16.1028 3.20802 16.3809 3.20802 16.6583 3.22345V11.5859ZM17.6328 15.0425C17.0359 14.9393 16.4313 14.8864 15.8254 14.8843C13.7584 14.8826 11.7345 15.4753 9.995 16.5918C8.25547 15.4753 6.23158 14.8826 4.16459 14.8843C3.55874 14.8864 2.95415 14.9393 2.35716 15.0425C2.24873 15.0597 2.14478 15.0982 2.05128 15.1557C1.95778 15.2133 1.87657 15.2887 1.81232 15.3777C1.74807 15.4667 1.70206 15.5676 1.67692 15.6744C1.65178 15.7813 1.64801 15.8921 1.66584 16.0004C1.70816 16.2167 1.83449 16.4074 2.01715 16.5307C2.19981 16.6541 2.42391 16.7 2.64035 16.6584C3.83393 16.4517 5.05681 16.486 6.23694 16.7592C7.41707 17.0325 8.53059 17.5391 9.51191 18.2493C9.65298 18.3497 9.82184 18.4037 9.995 18.4037C10.1682 18.4037 10.337 18.3497 10.4781 18.2493C11.4594 17.5391 12.5729 17.0325 13.7531 16.7592C14.9332 16.486 16.1561 16.4517 17.3497 16.6584C17.5661 16.7 17.7902 16.6541 17.9729 16.5307C18.1555 16.4074 18.2818 16.2167 18.3242 16.0004C18.342 15.8921 18.3382 15.7813 18.3131 15.6744C18.288 15.5676 18.2419 15.4667 18.1777 15.3777C18.1134 15.2887 18.0322 15.2133 17.9387 15.1557C17.8452 15.0982 17.7413 15.0597 17.6328 15.0425Z" fill="white"/>
</g>
</svg>
