<svg width="28" height="36" viewBox="0 0 28 36" fill="none" xmlns="http://www.w3.org/2000/svg">
<path fill-rule="evenodd" clip-rule="evenodd" d="M14 0C11.9844 0 10.0513 0.837954 8.62602 2.32952C7.20075 3.82109 6.40005 5.84409 6.40005 7.95349C6.40005 10.0629 7.20075 12.0859 8.62602 13.5775C10.0513 15.069 11.9844 15.907 14 15.907C16.0156 15.907 17.9487 15.069 19.374 13.5775C20.7992 12.0859 21.5999 10.0629 21.5999 7.95349C21.5999 5.84409 20.7992 3.82109 19.374 2.32952C17.9487 0.837954 16.0156 0 14 0ZM8.80003 7.95349C8.80003 6.51022 9.34788 5.12606 10.3231 4.10551C11.2983 3.08496 12.6209 2.51163 14 2.51163C15.3791 2.51163 16.7017 3.08496 17.6769 4.10551C18.6521 5.12606 19.2 6.51022 19.2 7.95349C19.2 9.39676 18.6521 10.7809 17.6769 11.8015C16.7017 12.822 15.3791 13.3953 14 13.3953C12.6209 13.3953 11.2983 12.822 10.3231 11.8015C9.34788 10.7809 8.80003 9.39676 8.80003 7.95349ZM14 18.4186C10.2992 18.4186 6.88804 19.2993 4.36166 20.7862C1.87208 22.253 8.94425e-05 24.4733 8.94425e-05 27.2093V27.3801C-0.00151055 29.3258 -0.00311067 31.7671 2.04328 33.5118C3.04967 34.3691 4.45926 34.9803 6.36325 35.3821C8.27044 35.7873 10.7584 36 14 36C17.2416 36 19.728 35.7873 21.6383 35.3821C23.5423 34.9803 24.9503 34.3691 25.9583 33.5118C28.0047 31.7671 28.0015 29.3258 27.9999 27.3801V27.2093C27.9999 24.4733 26.1279 22.253 23.6399 20.7862C21.112 19.2993 17.7024 18.4186 14 18.4186ZM2.40007 27.2093C2.40007 25.7844 3.39527 24.2372 5.53765 22.9764C7.64324 21.7373 10.632 20.9302 14.0016 20.9302C17.368 20.9302 20.3568 21.7373 22.4623 22.9764C24.6063 24.2372 25.5999 25.7844 25.5999 27.2093C25.5999 29.3994 25.5359 30.6318 24.4415 31.5628C23.8495 32.0685 22.8575 32.5624 21.1616 32.9207C19.4704 33.2791 17.1584 33.4884 14 33.4884C10.8416 33.4884 8.52803 33.2791 6.83844 32.9207C5.14246 32.5624 4.15046 32.0685 3.55847 31.5645C2.46407 30.6318 2.40007 29.3994 2.40007 27.2093Z" fill="#FF6500"/>
</svg>
