<svg width="335" height="123" viewBox="0 0 335 123" fill="none" xmlns="http://www.w3.org/2000/svg">
<path d="M194.56 32.9913C196.954 33.5744 198.713 34.5584 199.838 35.9433C200.998 37.2918 201.579 39.0776 201.579 41.3007C201.579 48.1158 196.265 51.5233 185.638 51.5233C182.519 51.5233 179.327 51.4322 176.063 51.25L176.443 40.754L176.063 16.0447L188.521 15.99C192.112 15.99 194.905 16.7553 196.9 18.286C198.895 19.7802 199.892 21.9487 199.892 24.7913C199.892 26.6864 199.421 28.3447 198.477 29.766C197.571 31.1873 196.265 32.2624 194.56 32.9913ZM192.33 25.7753C192.33 24.1718 191.858 23.042 190.915 22.386C189.972 21.6936 188.322 21.3473 185.964 21.3473H183.298L183.135 30.914L188.249 31.078C189.628 30.7136 190.643 30.1122 191.296 29.274C191.985 28.4358 192.33 27.2696 192.33 25.7753ZM186.889 46.2207C189.174 46.2207 190.933 45.7651 192.167 44.854C193.436 43.9429 194.071 42.6309 194.071 40.918C194.071 38.3304 192.402 36.7269 189.065 36.1073L183.026 36.2167L182.972 40.098L183.135 46.002C184.405 46.1478 185.656 46.2207 186.889 46.2207Z" fill="white"/>
<path d="M219.103 23.206C223.237 23.206 226.429 24.3904 228.678 26.7593C230.927 29.1282 232.051 32.4811 232.051 36.818C232.051 41.5558 230.818 45.2367 228.352 47.8607C225.921 50.4482 222.476 51.742 218.015 51.742C213.916 51.742 210.742 50.5393 208.494 48.134C206.245 45.6922 205.12 42.2664 205.12 37.8567C205.12 33.1918 206.336 29.5838 208.766 27.0327C211.196 24.4816 214.641 23.206 219.103 23.206ZM218.504 28.782C216.255 28.782 214.641 29.4016 213.662 30.6407C212.719 31.8433 212.248 33.9389 212.248 36.9273C212.248 39.3327 212.447 41.2278 212.846 42.6127C213.281 43.9611 213.952 44.9269 214.859 45.51C215.802 46.0931 217.053 46.3847 218.613 46.3847C220.898 46.3847 222.512 45.7833 223.455 44.5807C224.434 43.378 224.924 41.2642 224.924 38.2393C224.924 35.834 224.706 33.9571 224.271 32.6087C223.836 31.2238 223.165 30.2398 222.258 29.6567C221.351 29.0736 220.1 28.782 218.504 28.782Z" fill="white"/>
<path d="M249.546 23.206C253.681 23.206 256.873 24.3904 259.122 26.7593C261.37 29.1282 262.495 32.4811 262.495 36.818C262.495 41.5558 261.262 45.2367 258.795 47.8607C256.365 50.4482 252.919 51.742 248.458 51.742C244.36 51.742 241.186 50.5393 238.937 48.134C236.688 45.6922 235.564 42.2664 235.564 37.8567C235.564 33.1918 236.779 29.5838 239.209 27.0327C241.639 24.4816 245.085 23.206 249.546 23.206ZM248.948 28.782C246.699 28.782 245.085 29.4016 244.106 30.6407C243.163 31.8433 242.691 33.9389 242.691 36.9273C242.691 39.3327 242.891 41.2278 243.29 42.6127C243.725 43.9611 244.396 44.9269 245.303 45.51C246.246 46.0931 247.497 46.3847 249.057 46.3847C251.342 46.3847 252.956 45.7833 253.899 44.5807C254.878 43.378 255.368 41.2642 255.368 38.2393C255.368 35.834 255.15 33.9571 254.715 32.6087C254.28 31.2238 253.609 30.2398 252.702 29.6567C251.795 29.0736 250.544 28.782 248.948 28.782Z" fill="white"/>
<path d="M281.356 36.654C284.657 41.1002 288.248 45.4736 292.129 49.774L291.965 50.594C289.499 51.2136 287.25 51.5962 285.219 51.742L284.349 51.3593C280.758 46.5851 277.512 41.9749 274.61 37.5287L274.501 42.394L274.773 51.25H267.918L268.19 43.05L267.918 23.6433H274.882L274.61 36.1073L282.118 26.4313L283.805 23.6433L291.313 23.5887L281.356 36.654Z" fill="white"/>
<path d="M302.767 42.394L303.039 51.25H296.184L296.456 43.05L296.184 23.6433H303.147L302.767 42.394Z" fill="white"/>
<path d="M330.257 45.674L330.693 46.1113L330.203 51.25H311.379L311.651 43.05L311.379 23.6433H330.475L330.856 24.19L330.421 29.274L323.348 29.0007H318.234L318.125 34.5767L323.021 34.6313L327.755 34.4673L328.136 34.9593L327.7 40.1527L322.532 39.9887H318.016L317.962 42.394L318.071 45.8927H322.858L330.257 45.674Z" fill="white"/>
<path d="M190.153 67.076C195.231 67.076 199.13 68.4973 201.851 71.34C204.571 74.1827 205.931 78.2644 205.931 83.5853C205.931 89.8173 204.408 94.5916 201.361 97.908C198.314 101.224 193.962 102.883 188.304 102.883C186.599 102.883 184.55 102.846 182.156 102.773C179.798 102.7 177.767 102.609 176.063 102.5L176.443 92.004L176.063 67.2947L190.153 67.076ZM189.609 97.1427C195.376 97.1427 198.26 93.1884 198.26 85.28C198.26 80.9796 197.553 77.8636 196.138 75.932C194.76 73.964 192.584 72.98 189.609 72.98C187.687 72.98 185.638 73.0711 183.462 73.2533L183.135 91.348L183.298 96.76C185.837 97.0151 187.941 97.1427 189.609 97.1427Z" fill="white"/>
<path d="M223.247 74.456C227.382 74.456 230.573 75.6404 232.822 78.0093C235.071 80.3782 236.195 83.7311 236.195 88.068C236.195 92.8058 234.962 96.4867 232.496 99.1107C230.066 101.698 226.62 102.992 222.159 102.992C218.06 102.992 214.887 101.789 212.638 99.384C210.389 96.9422 209.265 93.5164 209.265 89.1067C209.265 84.4418 210.48 80.8338 212.91 78.2827C215.34 75.7316 218.786 74.456 223.247 74.456ZM222.648 80.032C220.4 80.032 218.786 80.6516 217.806 81.8907C216.863 83.0933 216.392 85.1889 216.392 88.1773C216.392 90.5827 216.591 92.4778 216.99 93.8627C217.425 95.2111 218.096 96.1769 219.003 96.76C219.946 97.3431 221.198 97.6347 222.757 97.6347C225.042 97.6347 226.656 97.0333 227.599 95.8307C228.579 94.628 229.068 92.5142 229.068 89.4893C229.068 87.084 228.851 85.2071 228.415 83.8587C227.98 82.4738 227.309 81.4898 226.402 80.9067C225.496 80.3236 224.244 80.032 222.648 80.032Z" fill="white"/>
<path d="M253.69 74.456C257.825 74.456 261.017 75.6404 263.266 78.0093C265.514 80.3782 266.639 83.7311 266.639 88.068C266.639 92.8058 265.406 96.4867 262.939 99.1107C260.509 101.698 257.064 102.992 252.602 102.992C248.504 102.992 245.33 101.789 243.081 99.384C240.833 96.9422 239.708 93.5164 239.708 89.1067C239.708 84.4418 240.923 80.8338 243.353 78.2827C245.783 75.7316 249.229 74.456 253.69 74.456ZM253.092 80.032C250.843 80.032 249.229 80.6516 248.25 81.8907C247.307 83.0933 246.835 85.1889 246.835 88.1773C246.835 90.5827 247.035 92.4778 247.434 93.8627C247.869 95.2111 248.54 96.1769 249.447 96.76C250.39 97.3431 251.641 97.6347 253.201 97.6347C255.486 97.6347 257.1 97.0333 258.043 95.8307C259.022 94.628 259.512 92.5142 259.512 89.4893C259.512 87.084 259.294 85.2071 258.859 83.8587C258.424 82.4738 257.753 81.4898 256.846 80.9067C255.939 80.3236 254.688 80.032 253.092 80.032Z" fill="white"/>
<path d="M285.501 87.904C288.801 92.3502 292.392 96.7236 296.273 101.024L296.11 101.844C293.643 102.464 291.394 102.846 289.363 102.992L288.493 102.609C284.902 97.8351 281.656 93.2249 278.754 88.7787L278.645 93.644L278.917 102.5H272.062L272.334 94.3L272.062 74.8933H279.026L278.754 87.3573L286.262 77.6813L287.949 74.8933L295.457 74.8387L285.501 87.904Z" fill="white"/>
<path d="M306.911 93.644L307.183 102.5H300.328L300.6 94.3L300.328 74.8933H307.292L306.911 93.644Z" fill="white"/>
<path d="M334.402 96.924L334.837 97.3613L334.347 102.5H315.523L315.795 94.3L315.523 74.8933H334.619L335 75.44L334.565 80.524L327.492 80.2507H322.378L322.269 85.8267L327.166 85.8813L331.899 85.7173L332.28 86.2093L331.844 91.4027L326.676 91.2387H322.16L322.106 93.644L322.215 97.1427H327.002L334.402 96.924Z" fill="white"/>
<path d="M86.4942 23.0624C86.4942 10.3252 75.9331 0 62.9049 0C49.8767 0 39.3156 10.3252 39.3156 23.0624C39.3156 35.7996 49.8767 46.1249 62.9049 46.1249C75.9331 46.1249 86.4942 35.7996 86.4942 23.0624ZM57.3983 57.9204C42.8196 49.1951 19.2057 46.7975 7.32252 46.1369C3.32954 45.9159 0 48.89 0 52.6448V106.169C0 109.611 2.84792 112.482 6.50918 112.667C17.2374 113.217 38.9421 115.233 53.9434 122.62C56.2458 123.754 58.9758 122.209 58.9758 119.769V60.6734C58.9734 59.5515 58.4057 58.5233 57.3983 57.9204ZM118.487 46.1369C106.607 46.7951 82.9902 49.1951 68.414 57.9204C67.4065 58.5233 66.8389 59.5924 66.8389 60.7143V119.761C66.8389 122.209 69.5763 123.756 71.8861 122.62C86.8849 115.24 108.577 113.225 119.303 112.674C122.964 112.487 125.812 109.616 125.812 106.174V52.6448C125.81 48.89 122.48 45.9159 118.487 46.1369Z" fill="#FF6500"/>
</svg>
