<svg width="127" height="123" viewBox="0 0 127 123" fill="none" xmlns="http://www.w3.org/2000/svg">
<path d="M87.3108 23.0624C87.3108 10.3252 76.6499 0 63.4988 0C50.3476 0 39.6867 10.3252 39.6867 23.0624C39.6867 35.7996 50.3476 46.1249 63.4988 46.1249C76.6499 46.1249 87.3108 35.7996 87.3108 23.0624ZM57.9401 57.9204C43.2238 49.1951 19.387 46.7975 7.39165 46.1369C3.36097 45.9159 0 48.89 0 52.6448V106.169C0 109.611 2.87481 112.482 6.57063 112.667C17.4001 113.217 39.3097 115.233 54.4527 122.62C56.7768 123.754 59.5326 122.209 59.5326 119.769V60.6734C59.5301 59.5515 58.9571 58.5233 57.9401 57.9204ZM119.606 46.1369C107.613 46.7951 83.7737 49.1951 69.0599 57.9204C68.0429 58.5233 67.4699 59.5924 67.4699 60.7143V119.761C67.4699 122.209 70.2331 123.756 72.5647 122.62C87.7052 115.24 109.602 113.225 120.429 112.674C124.125 112.487 127 109.616 127 106.174V52.6448C126.998 48.89 123.637 45.9159 119.606 46.1369Z" fill="#FF6500"/>
</svg>
