<svg width="37" height="36" viewBox="0 0 37 36" fill="none" xmlns="http://www.w3.org/2000/svg">
<path d="M25.437 6.74998C25.437 3.02202 22.3311 0 18.4996 0C14.6682 0 11.5623 3.02202 11.5623 6.74998C11.5623 10.4779 14.6682 13.5 18.4996 13.5C22.3311 13.5 25.437 10.4779 25.437 6.74998ZM16.8802 16.9523C12.5928 14.3986 5.64817 13.6968 2.15347 13.5035C0.97918 13.4388 0 14.3093 0 15.4082V31.0738C0 32.0814 0.837542 32.9216 1.91428 32.9758C5.06933 33.1368 11.4524 33.7267 15.8642 35.8888C16.5413 36.2207 17.3441 35.7686 17.3441 35.0542V17.7581C17.3434 17.4297 17.1765 17.1288 16.8802 16.9523ZM34.8458 13.5035C31.3518 13.6961 24.4065 14.3986 20.1198 16.9523C19.8235 17.1288 19.6566 17.4417 19.6566 17.77V35.0521C19.6566 35.7686 20.4616 36.2214 21.1409 35.8888C25.5519 33.7288 31.9314 33.1389 35.0857 32.9779C36.1625 32.923 37 32.0828 37 31.0752V15.4082C36.9993 14.3093 36.0201 13.4388 34.8458 13.5035Z" fill="#FF6500"/>
</svg>
