<svg width="40" height="40" viewBox="0 0 40 40" fill="none" xmlns="http://www.w3.org/2000/svg">
<rect x="0.5" y="0.5" width="39" height="39" rx="19.5" stroke="#FF6500"/>
<path d="M21.6139 16.3888C21.299 16.0732 20.9248 15.8229 20.5129 15.6523C20.1009 15.4817 19.6594 15.3941 19.2135 15.3946C18.7677 15.3941 18.3261 15.4817 17.9142 15.6523C17.5022 15.8229 17.1281 16.0732 16.8131 16.3888M24.3996 24.3996L28 28M19.2135 26.427C23.1975 26.427 26.427 23.1975 26.427 19.2135C26.427 15.2295 23.1975 12 19.2135 12C15.2295 12 12 15.2295 12 19.2135C12 23.1975 15.2295 26.427 19.2135 26.427Z" stroke="white" stroke-width="2" stroke-linecap="round" stroke-linejoin="round"/>
</svg>
