<svg width="159" height="86" viewBox="0 0 159 86" fill="none" xmlns="http://www.w3.org/2000/svg">
<path d="M18.5051 16.8055C20.8999 17.3819 22.6597 18.3546 23.7845 19.7235C24.9456 21.0564 25.5261 22.8217 25.5261 25.0192C25.5261 31.7558 20.2105 35.1241 9.5791 35.1241C6.45864 35.1241 3.2656 35.034 0 34.8539L0.380987 24.4788L0 0.0540364L12.4637 0C16.0559 0 18.8498 0.756519 20.8454 2.26956C22.8411 3.74657 23.8389 5.89004 23.8389 8.69997C23.8389 10.5733 23.3672 12.2124 22.4238 13.6173C21.5167 15.0223 20.2105 16.085 18.5051 16.8055ZM16.2736 9.67264C16.2736 8.08755 15.8019 6.97078 14.8585 6.32234C13.9151 5.63787 12.2642 5.29563 9.90566 5.29563H7.23875L7.07547 14.7521L12.1916 14.9142C13.5704 14.554 14.5864 13.9596 15.2395 13.131C15.9289 12.3024 16.2736 11.1497 16.2736 9.67264ZM10.8309 29.8825C13.1168 29.8825 14.8766 29.4322 16.1103 28.5316C17.3803 27.631 18.0152 26.3341 18.0152 24.6409C18.0152 22.0832 16.3462 20.4981 13.008 19.8856L6.96662 19.9937L6.91219 23.8304L7.07547 29.6664C8.34543 29.8105 9.59725 29.8825 10.8309 29.8825Z" fill="white"/>
<path d="M43.0571 7.13289C47.1935 7.13289 50.3865 8.3037 52.6362 10.6453C54.8858 12.9869 56.0106 16.3012 56.0106 20.5881C56.0106 25.2713 54.777 28.9098 52.3096 31.5036C49.8785 34.0614 46.4315 35.3402 41.9685 35.3402C37.8684 35.3402 34.6935 34.1514 32.4439 31.7738C30.1942 29.3601 29.0694 25.9738 29.0694 21.6148C29.0694 17.0037 30.2849 13.4372 32.716 10.9155C35.147 8.39376 38.5941 7.13289 43.0571 7.13289ZM42.4584 12.6447C40.2087 12.6447 38.5941 13.2571 37.6144 14.4819C36.671 15.6708 36.1993 17.7422 36.1993 20.6962C36.1993 23.0738 36.3989 24.9471 36.798 26.3161C37.2334 27.649 37.9047 28.6036 38.8118 29.18C39.7552 29.7564 41.007 30.0446 42.5672 30.0446C44.8531 30.0446 46.4678 29.4502 47.4112 28.2614C48.3909 27.0726 48.8807 24.9831 48.8807 21.9931C48.8807 19.6155 48.663 17.7602 48.2276 16.4273C47.7922 15.0583 47.1209 14.0857 46.2138 13.5093C45.3067 12.9329 44.0549 12.6447 42.4584 12.6447Z" fill="white"/>
<path d="M73.5126 7.13289C77.6491 7.13289 80.8421 8.3037 83.0917 10.6453C85.3414 12.9869 86.4662 16.3012 86.4662 20.5881C86.4662 25.2713 85.2325 28.9098 82.7652 31.5036C80.3341 34.0614 76.8871 35.3402 72.4241 35.3402C68.324 35.3402 65.1491 34.1514 62.8994 31.7738C60.6498 29.3601 59.525 25.9738 59.525 21.6148C59.525 17.0037 60.7405 13.4372 63.1716 10.9155C65.6026 8.39376 69.0496 7.13289 73.5126 7.13289ZM72.9139 12.6447C70.6643 12.6447 69.0496 13.2571 68.07 14.4819C67.1266 15.6708 66.6549 17.7422 66.6549 20.6962C66.6549 23.0738 66.8544 24.9471 67.2536 26.3161C67.689 27.649 68.3602 28.6036 69.2674 29.18C70.2108 29.7564 71.4626 30.0446 73.0228 30.0446C75.3087 30.0446 76.9234 29.4502 77.8668 28.2614C78.8465 27.0726 79.3363 24.9831 79.3363 21.9931C79.3363 19.6155 79.1186 17.7602 78.6832 16.4273C78.2478 15.0583 77.5765 14.0857 76.6694 13.5093C75.7623 12.9329 74.5105 12.6447 72.9139 12.6447Z" fill="white"/>
<path d="M105.335 20.426C108.637 24.821 112.229 29.144 116.112 33.3949L115.948 34.2055C113.481 34.8179 111.231 35.1961 109.2 35.3402L108.329 34.962C104.737 30.2427 101.489 25.6856 98.5864 21.2906L98.4775 26.0999L98.7496 34.8539H91.8919L92.164 26.7484L91.8919 7.56519H98.8585L98.5864 19.8856L106.097 10.3211L107.784 7.56519L115.295 7.51115L105.335 20.426Z" fill="white"/>
<path d="M126.754 26.0999L127.026 34.8539H120.168L120.44 26.7484L120.168 7.56519H127.135L126.754 26.0999Z" fill="white"/>
<path d="M154.256 29.3421L154.691 29.7744L154.201 34.8539H135.369L135.642 26.7484L135.369 7.56519H154.473L154.854 8.10556L154.419 13.131L147.343 12.8608H142.227L142.118 18.3726L147.017 18.4266L151.752 18.2645L152.133 18.7509L151.697 23.8844L146.527 23.7223H142.01L141.955 26.0999L142.064 29.5583H146.853L154.256 29.3421Z" fill="white"/>
<path d="M14.0965 50.4976C19.1763 50.4976 23.0769 51.9026 25.7983 54.7125C28.5196 57.5225 29.8803 61.5572 29.8803 66.8168C29.8803 72.9771 28.3563 77.6963 25.3084 80.9746C22.2605 84.2528 17.9064 85.8919 12.246 85.8919C10.5406 85.8919 8.49057 85.8559 6.09579 85.7839C3.7373 85.7118 1.70537 85.6217 0 85.5137L0.380987 75.1386L0 50.7138L14.0965 50.4976ZM13.5523 80.218C19.3215 80.218 22.2061 76.3094 22.2061 68.492C22.2061 64.2411 21.4986 61.161 20.0835 59.2517C18.7046 57.3063 16.5276 56.3336 13.5523 56.3336C11.6292 56.3336 9.5791 56.4237 7.40203 56.6038L7.07547 74.4901L7.23875 79.8398C9.77867 80.092 11.8832 80.218 13.5523 80.218Z" fill="white"/>
<path d="M47.2028 57.7926C51.3393 57.7926 54.5323 58.9635 56.782 61.3051C59.0316 63.6467 60.1564 66.9609 60.1564 71.2479C60.1564 75.9311 58.9227 79.5696 56.4554 82.1634C54.0243 84.7211 50.5773 86 46.1143 86C42.0142 86 38.8393 84.8112 36.5896 82.4336C34.34 80.0199 33.2152 76.6336 33.2152 72.2746C33.2152 67.6634 34.4307 64.097 36.8618 61.5752C39.2928 59.0535 42.7399 57.7926 47.2028 57.7926ZM46.6042 63.3044C44.3545 63.3044 42.7399 63.9168 41.7602 65.1417C40.8168 66.3305 40.3451 68.4019 40.3451 71.356C40.3451 73.7336 40.5446 75.6069 40.9438 76.9758C41.3792 78.3087 42.0505 79.2634 42.9576 79.8398C43.901 80.4162 45.1528 80.7044 46.713 80.7044C48.9989 80.7044 50.6136 80.11 51.557 78.9211C52.5367 77.7323 53.0265 75.6429 53.0265 72.6528C53.0265 70.2752 52.8088 68.4199 52.3734 67.087C51.938 65.7181 51.2667 64.7454 50.3596 64.169C49.4525 63.5926 48.2007 63.3044 46.6042 63.3044Z" fill="white"/>
<path d="M77.6584 57.7926C81.7949 57.7926 84.9879 58.9635 87.2375 61.3051C89.4872 63.6467 90.612 66.9609 90.612 71.2479C90.612 75.9311 89.3783 79.5696 86.911 82.1634C84.4799 84.7211 81.0329 86 76.5699 86C72.4697 86 69.2948 84.8112 67.0452 82.4336C64.7956 80.0199 63.6708 76.6336 63.6708 72.2746C63.6708 67.6634 64.8863 64.097 67.3173 61.5752C69.7484 59.0535 73.1954 57.7926 77.6584 57.7926ZM77.0597 63.3044C74.8101 63.3044 73.1954 63.9168 72.2158 65.1417C71.2724 66.3305 70.8007 68.4019 70.8007 71.356C70.8007 73.7336 71.0002 75.6069 71.3994 76.9758C71.8348 78.3087 72.506 79.2634 73.4131 79.8398C74.3565 80.4162 75.6084 80.7044 77.1686 80.7044C79.4545 80.7044 81.0692 80.11 82.0126 78.9211C82.9922 77.7323 83.4821 75.6429 83.4821 72.6528C83.4821 70.2752 83.2644 68.4199 82.829 67.087C82.3936 65.7181 81.7223 64.7454 80.8152 64.169C79.9081 63.5926 78.6562 63.3044 77.0597 63.3044Z" fill="white"/>
<path d="M109.481 71.0858C112.783 75.4808 116.375 79.8037 120.258 84.0547L120.094 84.8652C117.627 85.4776 115.377 85.8559 113.345 86L112.475 85.6217C108.882 80.9025 105.635 76.3454 102.732 71.9504L102.623 76.7597L102.895 85.5137H96.0376L96.3098 77.4081L96.0376 58.2249H103.004L102.732 70.5454L110.243 60.9808L111.93 58.2249L119.441 58.1709L109.481 71.0858Z" fill="white"/>
<path d="M130.9 76.7597L131.172 85.5137H124.314L124.586 77.4081L124.314 58.2249H131.281L130.9 76.7597Z" fill="white"/>
<path d="M158.401 80.0019L158.837 80.4342L158.347 85.5137H139.515L139.787 77.4081L139.515 58.2249H158.619L159 58.7653L158.565 63.7908L151.489 63.5206H146.373L146.264 69.0324L151.163 69.0864L155.898 68.9243L156.279 69.4106L155.843 74.5441L150.673 74.382H146.155L146.101 76.7597L146.21 80.218H150.999L158.401 80.0019Z" fill="white"/>
</svg>
